<svg width="371" height="280" viewBox="0 0 371 280" fill="none" xmlns="http://www.w3.org/2000/svg">
<path d="M112.741 258.038C166.082 311.379 199.337 374.676 210.002 433.874C220.667 493.074 208.736 548.124 171.784 585.075C134.833 622.027 79.7826 633.958 20.5826 623.293C-38.6151 612.628 -101.912 579.373 -155.253 526.032C-208.594 472.691 -241.849 409.394 -252.514 350.196C-263.179 290.997 -251.248 235.947 -214.296 198.995C-177.345 162.043 -122.295 150.112 -63.0947 160.777C-3.89692 171.442 59.3996 204.697 112.741 258.038Z" stroke="white"/>
<path d="M144.741 226.038C198.082 279.379 231.337 342.676 242.002 401.874C252.667 461.074 240.736 516.124 203.784 553.075C166.833 590.027 111.783 601.958 52.5826 591.293C-6.61511 580.628 -69.9116 547.373 -123.253 494.032C-176.594 440.691 -209.849 377.394 -220.514 318.196C-231.179 258.997 -219.248 203.947 -182.296 166.995C-145.345 130.043 -90.2946 118.112 -31.0947 128.777C28.1031 139.442 91.3996 172.697 144.741 226.038Z" stroke="white"/>
<path d="M176.741 194.038C230.082 247.379 263.337 310.676 274.002 369.874C284.667 429.074 272.736 484.124 235.784 521.075C198.833 558.027 143.783 569.958 84.5826 559.293C25.3849 548.628 -37.9116 515.373 -91.2527 462.032C-144.594 408.691 -177.849 345.394 -188.514 286.196C-199.179 226.997 -187.248 171.947 -150.296 134.995C-113.345 98.0434 -58.2946 86.1123 0.90535 96.7772C60.1031 107.442 123.4 140.697 176.741 194.038Z" stroke="white"/>
</svg>
